ISO-10303-21;
HEADER;
/* Generated by software containing ST-Developer
 * from STEP Tools, Inc. (www.steptools.com) 
 */

FILE_DESCRIPTION(
/* description */ (''),
/* implementation_level */ '2;1');

FILE_NAME(
/* name */ 'cableClipScrewSingle.step',
/* time_stamp */ '2026-10-07T21:52:39+01:00',
/* author */ (''),
/* organization */ (''),
/* preprocessor_version */ 'ST-DEVELOPER v20.1',
/* originating_system */ 'Autodesk Translation Framework v15.8.0.0',
/* authorisation */ '');

FILE_SCHEMA (('AUTOMOTIVE_DESIGN { 1 0 10303 214 3 1 1 }'));
ENDSEC;

DATA;
#10=MECHANICAL_DESIGN_GEOMETRIC_PRESENTATION_REPRESENTATION('',(#13),#704);
#11=SHAPE_REPRESENTATION_RELATIONSHIP('SRR','None',#711,#12);
#12=ADVANCED_BREP_SHAPE_REPRESENTATION('',(#14),#703);
#13=STYLED_ITEM('',(#720),#14);
#14=MANIFOLD_SOLID_BREP('Body7',#404);
#15=FACE_BOUND('',#53,.T.);
#16=FACE_BOUND('',#61,.T.);
#17=PLANE('',#424);
#18=PLANE('',#433);
#19=PLANE('',#437);
#20=PLANE('',#444);
#21=PLANE('',#446);
#22=PLANE('',#449);
#23=PLANE('',#455);
#24=PLANE('',#456);
#25=PLANE('',#459);
#26=PLANE('',#460);
#27=FACE_OUTER_BOUND('',#48,.T.);
#28=FACE_OUTER_BOUND('',#49,.T.);
#29=FACE_OUTER_BOUND('',#50,.T.);
#30=FACE_OUTER_BOUND('',#51,.T.);
#31=FACE_OUTER_BOUND('',#52,.T.);
#32=FACE_OUTER_BOUND('',#54,.T.);
#33=FACE_OUTER_BOUND('',#55,.T.);
#34=FACE_OUTER_BOUND('',#56,.T.);
#35=FACE_OUTER_BOUND('',#57,.T.);
#36=FACE_OUTER_BOUND('',#58,.T.);
#37=FACE_OUTER_BOUND('',#59,.T.);
#38=FACE_OUTER_BOUND('',#60,.T.);
#39=FACE_OUTER_BOUND('',#62,.T.);
#40=FACE_OUTER_BOUND('',#63,.T.);
#41=FACE_OUTER_BOUND('',#64,.T.);
#42=FACE_OUTER_BOUND('',#65,.T.);
#43=FACE_OUTER_BOUND('',#66,.T.);
#44=FACE_OUTER_BOUND('',#67,.T.);
#45=FACE_OUTER_BOUND('',#68,.T.);
#46=FACE_OUTER_BOUND('',#69,.T.);
#47=FACE_OUTER_BOUND('',#70,.T.);
#48=EDGE_LOOP('',(#258,#259,#260,#261));
#49=EDGE_LOOP('',(#262,#263,#264,#265));
#50=EDGE_LOOP('',(#266,#267,#268,#269,#270,#271,#272,#273,#274,#275,#276,
#277,#278,#279,#280,#281));
#51=EDGE_LOOP('',(#282,#283,#284,#285));
#52=EDGE_LOOP('',(#286,#287,#288,#289,#290,#291));
#53=EDGE_LOOP('',(#292));
#54=EDGE_LOOP('',(#293,#294,#295,#296,#297,#298,#299,#300,#301,#302,#303,
#304,#305,#306,#307,#308));
#55=EDGE_LOOP('',(#309,#310,#311,#312));
#56=EDGE_LOOP('',(#313,#314,#315,#316));
#57=EDGE_LOOP('',(#317,#318,#319,#320));
#58=EDGE_LOOP('',(#321,#322,#323,#324));
#59=EDGE_LOOP('',(#325,#326,#327,#328));
#60=EDGE_LOOP('',(#329,#330,#331,#332,#333,#334));
#61=EDGE_LOOP('',(#335));
#62=EDGE_LOOP('',(#336,#337,#338,#339));
#63=EDGE_LOOP('',(#340,#341,#342,#343));
#64=EDGE_LOOP('',(#344,#345,#346,#347));
#65=EDGE_LOOP('',(#348,#349,#350,#351));
#66=EDGE_LOOP('',(#352,#353,#354,#355));
#67=EDGE_LOOP('',(#356,#357,#358,#359));
#68=EDGE_LOOP('',(#360,#361,#362,#363));
#69=EDGE_LOOP('',(#364,#365,#366,#367));
#70=EDGE_LOOP('',(#368,#369,#370,#371));
#71=LINE('',#590,#106);
#72=LINE('',#593,#107);
#73=LINE('',#598,#108);
#74=LINE('',#604,#109);
#75=LINE('',#608,#110);
#76=LINE('',#612,#111);
#77=LINE('',#616,#112);
#78=LINE('',#618,#113);
#79=LINE('',#620,#114);
#80=LINE('',#624,#115);
#81=LINE('',#627,#116);
#82=LINE('',#632,#117);
#83=LINE('',#633,#118);
#84=LINE('',#636,#119);
#85=LINE('',#640,#120);
#86=LINE('',#646,#121);
#87=LINE('',#650,#122);
#88=LINE('',#654,#123);
#89=LINE('',#655,#124);
#90=LINE('',#657,#125);
#91=LINE('',#661,#126);
#92=LINE('',#665,#127);
#93=LINE('',#668,#128);
#94=LINE('',#669,#129);
#95=LINE('',#671,#130);
#96=LINE('',#673,#131);
#97=LINE('',#675,#132);
#98=LINE('',#679,#133);
#99=LINE('',#682,#134);
#100=LINE('',#684,#135);
#101=LINE('',#688,#136);
#102=LINE('',#690,#137);
#103=LINE('',#692,#138);
#104=LINE('',#693,#139);
#105=LINE('',#698,#140);
#106=VECTOR('',#467,1.);
#107=VECTOR('',#470,10.);
#108=VECTOR('',#475,10.);
#109=VECTOR('',#482,10.);
#110=VECTOR('',#485,10.);
#111=VECTOR('',#488,10.);
#112=VECTOR('',#491,10.);
#113=VECTOR('',#492,10.);
#114=VECTOR('',#493,10.);
#115=VECTOR('',#496,10.);
#116=VECTOR('',#499,10.);
#117=VECTOR('',#504,10.);
#118=VECTOR('',#505,10.);
#119=VECTOR('',#508,10.);
#120=VECTOR('',#511,10.);
#121=VECTOR('',#518,10.);
#122=VECTOR('',#521,10.);
#123=VECTOR('',#524,10.);
#124=VECTOR('',#525,10.);
#125=VECTOR('',#526,10.);
#126=VECTOR('',#529,10.);
#127=VECTOR('',#532,10.);
#128=VECTOR('',#537,10.);
#129=VECTOR('',#538,10.);
#130=VECTOR('',#541,10.);
#131=VECTOR('',#544,10.);
#132=VECTOR('',#547,10.);
#133=VECTOR('',#552,10.);
#134=VECTOR('',#555,10.);
#135=VECTOR('',#558,10.);
#136=VECTOR('',#563,10.);
#137=VECTOR('',#566,10.);
#138=VECTOR('',#569,10.);
#139=VECTOR('',#570,10.);
#140=VECTOR('',#579,2.);
#141=CIRCLE('',#419,1.);
#142=CIRCLE('',#420,1.);
#143=CIRCLE('',#422,3.80000000000758);
#144=CIRCLE('',#423,3.80000000000758);
#145=CIRCLE('',#425,2.79999999998798);
#146=CIRCLE('',#426,2.8);
#147=CIRCLE('',#427,1.33333333333333);
#148=CIRCLE('',#428,1.);
#149=CIRCLE('',#429,0.4);
#150=CIRCLE('',#430,1.);
#151=CIRCLE('',#432,1.);
#152=CIRCLE('',#434,1.);
#153=CIRCLE('',#435,1.);
#154=CIRCLE('',#436,2.);
#155=CIRCLE('',#438,1.);
#156=CIRCLE('',#439,0.4);
#157=CIRCLE('',#440,1.33333333333333);
#158=CIRCLE('',#441,2.8);
#159=CIRCLE('',#442,2.79999999998798);
#160=CIRCLE('',#448,1.);
#161=CIRCLE('',#450,1.);
#162=CIRCLE('',#451,2.);
#163=VERTEX_POINT('',#586);
#164=VERTEX_POINT('',#587);
#165=VERTEX_POINT('',#589);
#166=VERTEX_POINT('',#591);
#167=VERTEX_POINT('',#595);
#168=VERTEX_POINT('',#597);
#169=VERTEX_POINT('',#601);
#170=VERTEX_POINT('',#603);
#171=VERTEX_POINT('',#605);
#172=VERTEX_POINT('',#607);
#173=VERTEX_POINT('',#609);
#174=VERTEX_POINT('',#611);
#175=VERTEX_POINT('',#613);
#176=VERTEX_POINT('',#615);
#177=VERTEX_POINT('',#617);
#178=VERTEX_POINT('',#619);
#179=VERTEX_POINT('',#621);
#180=VERTEX_POINT('',#623);
#181=VERTEX_POINT('',#625);
#182=VERTEX_POINT('',#629);
#183=VERTEX_POINT('',#630);
#184=VERTEX_POINT('',#635);
#185=VERTEX_POINT('',#637);
#186=VERTEX_POINT('',#639);
#187=VERTEX_POINT('',#642);
#188=VERTEX_POINT('',#645);
#189=VERTEX_POINT('',#647);
#190=VERTEX_POINT('',#649);
#191=VERTEX_POINT('',#651);
#192=VERTEX_POINT('',#653);
#193=VERTEX_POINT('',#656);
#194=VERTEX_POINT('',#658);
#195=VERTEX_POINT('',#660);
#196=VERTEX_POINT('',#662);
#197=VERTEX_POINT('',#664);
#198=VERTEX_POINT('',#677);
#199=VERTEX_POINT('',#681);
#200=VERTEX_POINT('',#685);
#201=EDGE_CURVE('',#163,#164,#141,.T.);
#202=EDGE_CURVE('',#164,#165,#71,.T.);
#203=EDGE_CURVE('',#165,#166,#142,.T.);
#204=EDGE_CURVE('',#163,#166,#72,.T.);
#205=EDGE_CURVE('',#164,#167,#143,.T.);
#206=EDGE_CURVE('',#167,#168,#73,.T.);
#207=EDGE_CURVE('',#165,#168,#144,.T.);
#208=EDGE_CURVE('',#163,#169,#145,.T.);
#209=EDGE_CURVE('',#169,#170,#74,.T.);
#210=EDGE_CURVE('',#171,#170,#146,.T.);
#211=EDGE_CURVE('',#172,#171,#75,.T.);
#212=EDGE_CURVE('',#173,#172,#147,.T.);
#213=EDGE_CURVE('',#173,#174,#76,.T.);
#214=EDGE_CURVE('',#175,#174,#148,.T.);
#215=EDGE_CURVE('',#176,#175,#77,.T.);
#216=EDGE_CURVE('',#177,#176,#78,.T.);
#217=EDGE_CURVE('',#177,#178,#79,.T.);
#218=EDGE_CURVE('',#179,#178,#149,.T.);
#219=EDGE_CURVE('',#179,#180,#80,.T.);
#220=EDGE_CURVE('',#181,#180,#150,.T.);
#221=EDGE_CURVE('',#167,#181,#81,.T.);
#222=EDGE_CURVE('',#182,#183,#151,.T.);
#223=EDGE_CURVE('',#183,#175,#82,.T.);
#224=EDGE_CURVE('',#174,#182,#83,.T.);
#225=EDGE_CURVE('',#184,#183,#84,.T.);
#226=EDGE_CURVE('',#185,#184,#152,.T.);
#227=EDGE_CURVE('',#185,#186,#85,.T.);
#228=EDGE_CURVE('',#176,#186,#153,.T.);
#229=EDGE_CURVE('',#187,#187,#154,.T.);
#230=EDGE_CURVE('',#168,#188,#86,.T.);
#231=EDGE_CURVE('',#189,#188,#155,.T.);
#232=EDGE_CURVE('',#189,#190,#87,.T.);
#233=EDGE_CURVE('',#191,#190,#156,.T.);
#234=EDGE_CURVE('',#191,#192,#88,.T.);
#235=EDGE_CURVE('',#184,#192,#89,.T.);
#236=EDGE_CURVE('',#182,#193,#90,.T.);
#237=EDGE_CURVE('',#194,#193,#157,.T.);
#238=EDGE_CURVE('',#194,#195,#91,.T.);
#239=EDGE_CURVE('',#196,#195,#158,.T.);
#240=EDGE_CURVE('',#196,#197,#92,.T.);
#241=EDGE_CURVE('',#197,#166,#159,.T.);
#242=EDGE_CURVE('',#172,#194,#93,.T.);
#243=EDGE_CURVE('',#193,#173,#94,.T.);
#244=EDGE_CURVE('',#195,#171,#95,.T.);
#245=EDGE_CURVE('',#170,#196,#96,.T.);
#246=EDGE_CURVE('',#169,#197,#97,.T.);
#247=EDGE_CURVE('',#198,#177,#160,.T.);
#248=EDGE_CURVE('',#186,#198,#98,.T.);
#249=EDGE_CURVE('',#199,#198,#99,.T.);
#250=EDGE_CURVE('',#192,#199,#161,.T.);
#251=EDGE_CURVE('',#178,#191,#100,.T.);
#252=EDGE_CURVE('',#200,#200,#162,.T.);
#253=EDGE_CURVE('',#199,#185,#101,.T.);
#254=EDGE_CURVE('',#190,#179,#102,.T.);
#255=EDGE_CURVE('',#188,#181,#103,.T.);
#256=EDGE_CURVE('',#180,#189,#104,.T.);
#257=EDGE_CURVE('',#200,#187,#105,.T.);
#258=ORIENTED_EDGE('',*,*,#201,.T.);
#259=ORIENTED_EDGE('',*,*,#202,.T.);
#260=ORIENTED_EDGE('',*,*,#203,.T.);
#261=ORIENTED_EDGE('',*,*,#204,.F.);
#262=ORIENTED_EDGE('',*,*,#202,.F.);
#263=ORIENTED_EDGE('',*,*,#205,.T.);
#264=ORIENTED_EDGE('',*,*,#206,.T.);
#265=ORIENTED_EDGE('',*,*,#207,.F.);
#266=ORIENTED_EDGE('',*,*,#201,.F.);
#267=ORIENTED_EDGE('',*,*,#208,.T.);
#268=ORIENTED_EDGE('',*,*,#209,.T.);
#269=ORIENTED_EDGE('',*,*,#210,.F.);
#270=ORIENTED_EDGE('',*,*,#211,.F.);
#271=ORIENTED_EDGE('',*,*,#212,.F.);
#272=ORIENTED_EDGE('',*,*,#213,.T.);
#273=ORIENTED_EDGE('',*,*,#214,.F.);
#274=ORIENTED_EDGE('',*,*,#215,.F.);
#275=ORIENTED_EDGE('',*,*,#216,.F.);
#276=ORIENTED_EDGE('',*,*,#217,.T.);
#277=ORIENTED_EDGE('',*,*,#218,.F.);
#278=ORIENTED_EDGE('',*,*,#219,.T.);
#279=ORIENTED_EDGE('',*,*,#220,.F.);
#280=ORIENTED_EDGE('',*,*,#221,.F.);
#281=ORIENTED_EDGE('',*,*,#205,.F.);
#282=ORIENTED_EDGE('',*,*,#222,.T.);
#283=ORIENTED_EDGE('',*,*,#223,.T.);
#284=ORIENTED_EDGE('',*,*,#214,.T.);
#285=ORIENTED_EDGE('',*,*,#224,.T.);
#286=ORIENTED_EDGE('',*,*,#223,.F.);
#287=ORIENTED_EDGE('',*,*,#225,.F.);
#288=ORIENTED_EDGE('',*,*,#226,.F.);
#289=ORIENTED_EDGE('',*,*,#227,.T.);
#290=ORIENTED_EDGE('',*,*,#228,.F.);
#291=ORIENTED_EDGE('',*,*,#215,.T.);
#292=ORIENTED_EDGE('',*,*,#229,.T.);
#293=ORIENTED_EDGE('',*,*,#203,.F.);
#294=ORIENTED_EDGE('',*,*,#207,.T.);
#295=ORIENTED_EDGE('',*,*,#230,.T.);
#296=ORIENTED_EDGE('',*,*,#231,.F.);
#297=ORIENTED_EDGE('',*,*,#232,.T.);
#298=ORIENTED_EDGE('',*,*,#233,.F.);
#299=ORIENTED_EDGE('',*,*,#234,.T.);
#300=ORIENTED_EDGE('',*,*,#235,.F.);
#301=ORIENTED_EDGE('',*,*,#225,.T.);
#302=ORIENTED_EDGE('',*,*,#222,.F.);
#303=ORIENTED_EDGE('',*,*,#236,.T.);
#304=ORIENTED_EDGE('',*,*,#237,.F.);
#305=ORIENTED_EDGE('',*,*,#238,.T.);
#306=ORIENTED_EDGE('',*,*,#239,.F.);
#307=ORIENTED_EDGE('',*,*,#240,.T.);
#308=ORIENTED_EDGE('',*,*,#241,.T.);
#309=ORIENTED_EDGE('',*,*,#212,.T.);
#310=ORIENTED_EDGE('',*,*,#242,.T.);
#311=ORIENTED_EDGE('',*,*,#237,.T.);
#312=ORIENTED_EDGE('',*,*,#243,.T.);
#313=ORIENTED_EDGE('',*,*,#242,.F.);
#314=ORIENTED_EDGE('',*,*,#211,.T.);
#315=ORIENTED_EDGE('',*,*,#244,.F.);
#316=ORIENTED_EDGE('',*,*,#238,.F.);
#317=ORIENTED_EDGE('',*,*,#210,.T.);
#318=ORIENTED_EDGE('',*,*,#245,.T.);
#319=ORIENTED_EDGE('',*,*,#239,.T.);
#320=ORIENTED_EDGE('',*,*,#244,.T.);
#321=ORIENTED_EDGE('',*,*,#245,.F.);
#322=ORIENTED_EDGE('',*,*,#209,.F.);
#323=ORIENTED_EDGE('',*,*,#246,.T.);
#324=ORIENTED_EDGE('',*,*,#240,.F.);
#325=ORIENTED_EDGE('',*,*,#247,.T.);
#326=ORIENTED_EDGE('',*,*,#216,.T.);
#327=ORIENTED_EDGE('',*,*,#228,.T.);
#328=ORIENTED_EDGE('',*,*,#248,.T.);
#329=ORIENTED_EDGE('',*,*,#247,.F.);
#330=ORIENTED_EDGE('',*,*,#249,.F.);
#331=ORIENTED_EDGE('',*,*,#250,.F.);
#332=ORIENTED_EDGE('',*,*,#234,.F.);
#333=ORIENTED_EDGE('',*,*,#251,.F.);
#334=ORIENTED_EDGE('',*,*,#217,.F.);
#335=ORIENTED_EDGE('',*,*,#252,.F.);
#336=ORIENTED_EDGE('',*,*,#226,.T.);
#337=ORIENTED_EDGE('',*,*,#235,.T.);
#338=ORIENTED_EDGE('',*,*,#250,.T.);
#339=ORIENTED_EDGE('',*,*,#253,.T.);
#340=ORIENTED_EDGE('',*,*,#218,.T.);
#341=ORIENTED_EDGE('',*,*,#251,.T.);
#342=ORIENTED_EDGE('',*,*,#233,.T.);
#343=ORIENTED_EDGE('',*,*,#254,.T.);
#344=ORIENTED_EDGE('',*,*,#231,.T.);
#345=ORIENTED_EDGE('',*,*,#255,.T.);
#346=ORIENTED_EDGE('',*,*,#220,.T.);
#347=ORIENTED_EDGE('',*,*,#256,.T.);
#348=ORIENTED_EDGE('',*,*,#254,.F.);
#349=ORIENTED_EDGE('',*,*,#232,.F.);
#350=ORIENTED_EDGE('',*,*,#256,.F.);
#351=ORIENTED_EDGE('',*,*,#219,.F.);
#352=ORIENTED_EDGE('',*,*,#243,.F.);
#353=ORIENTED_EDGE('',*,*,#236,.F.);
#354=ORIENTED_EDGE('',*,*,#224,.F.);
#355=ORIENTED_EDGE('',*,*,#213,.F.);
#356=ORIENTED_EDGE('',*,*,#208,.F.);
#357=ORIENTED_EDGE('',*,*,#204,.T.);
#358=ORIENTED_EDGE('',*,*,#241,.F.);
#359=ORIENTED_EDGE('',*,*,#246,.F.);
#360=ORIENTED_EDGE('',*,*,#252,.T.);
#361=ORIENTED_EDGE('',*,*,#257,.T.);
#362=ORIENTED_EDGE('',*,*,#229,.F.);
#363=ORIENTED_EDGE('',*,*,#257,.F.);
#364=ORIENTED_EDGE('',*,*,#255,.F.);
#365=ORIENTED_EDGE('',*,*,#230,.F.);
#366=ORIENTED_EDGE('',*,*,#206,.F.);
#367=ORIENTED_EDGE('',*,*,#221,.T.);
#368=ORIENTED_EDGE('',*,*,#248,.F.);
#369=ORIENTED_EDGE('',*,*,#227,.F.);
#370=ORIENTED_EDGE('',*,*,#253,.F.);
#371=ORIENTED_EDGE('',*,*,#249,.T.);
#372=CYLINDRICAL_SURFACE('',#418,1.);
#373=CYLINDRICAL_SURFACE('',#421,3.80000000000758);
#374=CYLINDRICAL_SURFACE('',#431,1.);
#375=CYLINDRICAL_SURFACE('',#443,1.33333333333333);
#376=CYLINDRICAL_SURFACE('',#445,2.8);
#377=CYLINDRICAL_SURFACE('',#447,1.);
#378=CYLINDRICAL_SURFACE('',#452,1.);
#379=CYLINDRICAL_SURFACE('',#453,0.4);
#380=CYLINDRICAL_SURFACE('',#454,1.);
#381=CYLINDRICAL_SURFACE('',#457,2.79999999998798);
#382=CYLINDRICAL_SURFACE('',#458,2.);
#383=ADVANCED_FACE('',(#27),#372,.T.);
#384=ADVANCED_FACE('',(#28),#373,.T.);
#385=ADVANCED_FACE('',(#29),#17,.F.);
#386=ADVANCED_FACE('',(#30),#374,.T.);
#387=ADVANCED_FACE('',(#31,#15),#18,.T.);
#388=ADVANCED_FACE('',(#32),#19,.T.);
#389=ADVANCED_FACE('',(#33),#375,.F.);
#390=ADVANCED_FACE('',(#34),#20,.T.);
#391=ADVANCED_FACE('',(#35),#376,.F.);
#392=ADVANCED_FACE('',(#36),#21,.T.);
#393=ADVANCED_FACE('',(#37),#377,.T.);
#394=ADVANCED_FACE('',(#38,#16),#22,.T.);
#395=ADVANCED_FACE('',(#39),#378,.T.);
#396=ADVANCED_FACE('',(#40),#379,.F.);
#397=ADVANCED_FACE('',(#41),#380,.T.);
#398=ADVANCED_FACE('',(#42),#23,.F.);
#399=ADVANCED_FACE('',(#43),#24,.T.);
#400=ADVANCED_FACE('',(#44),#381,.F.);
#401=ADVANCED_FACE('',(#45),#382,.F.);
#402=ADVANCED_FACE('',(#46),#25,.T.);
#403=ADVANCED_FACE('',(#47),#26,.F.);
#404=CLOSED_SHELL('',(#383,#384,#385,#386,#387,#388,#389,#390,#391,#392,
#393,#394,#395,#396,#397,#398,#399,#400,#401,#402,#403));
#405=DERIVED_UNIT_ELEMENT(#407,1.);
#406=DERIVED_UNIT_ELEMENT(#706,-3.);
#407=(
MASS_UNIT()
NAMED_UNIT(*)
SI_UNIT(.KILO.,.GRAM.)
);
#408=DERIVED_UNIT((#405,#406));
#409=MEASURE_REPRESENTATION_ITEM('density measure',
POSITIVE_RATIO_MEASURE(7850.),#408);
#410=PROPERTY_DEFINITION_REPRESENTATION(#415,#412);
#411=PROPERTY_DEFINITION_REPRESENTATION(#416,#413);
#412=REPRESENTATION('material name',(#414),#703);
#413=REPRESENTATION('density',(#409),#703);
#414=DESCRIPTIVE_REPRESENTATION_ITEM('Steel','Steel');
#415=PROPERTY_DEFINITION('material property','material name',#713);
#416=PROPERTY_DEFINITION('material property','density of part',#713);
#417=AXIS2_PLACEMENT_3D('',#584,#461,#462);
#418=AXIS2_PLACEMENT_3D('',#585,#463,#464);
#419=AXIS2_PLACEMENT_3D('',#588,#465,#466);
#420=AXIS2_PLACEMENT_3D('',#592,#468,#469);
#421=AXIS2_PLACEMENT_3D('',#594,#471,#472);
#422=AXIS2_PLACEMENT_3D('',#596,#473,#474);
#423=AXIS2_PLACEMENT_3D('',#599,#476,#477);
#424=AXIS2_PLACEMENT_3D('',#600,#478,#479);
#425=AXIS2_PLACEMENT_3D('',#602,#480,#481);
#426=AXIS2_PLACEMENT_3D('',#606,#483,#484);
#427=AXIS2_PLACEMENT_3D('',#610,#486,#487);
#428=AXIS2_PLACEMENT_3D('',#614,#489,#490);
#429=AXIS2_PLACEMENT_3D('',#622,#494,#495);
#430=AXIS2_PLACEMENT_3D('',#626,#497,#498);
#431=AXIS2_PLACEMENT_3D('',#628,#500,#501);
#432=AXIS2_PLACEMENT_3D('',#631,#502,#503);
#433=AXIS2_PLACEMENT_3D('',#634,#506,#507);
#434=AXIS2_PLACEMENT_3D('',#638,#509,#510);
#435=AXIS2_PLACEMENT_3D('',#641,#512,#513);
#436=AXIS2_PLACEMENT_3D('',#643,#514,#515);
#437=AXIS2_PLACEMENT_3D('',#644,#516,#517);
#438=AXIS2_PLACEMENT_3D('',#648,#519,#520);
#439=AXIS2_PLACEMENT_3D('',#652,#522,#523);
#440=AXIS2_PLACEMENT_3D('',#659,#527,#528);
#441=AXIS2_PLACEMENT_3D('',#663,#530,#531);
#442=AXIS2_PLACEMENT_3D('',#666,#533,#534);
#443=AXIS2_PLACEMENT_3D('',#667,#535,#536);
#444=AXIS2_PLACEMENT_3D('',#670,#539,#540);
#445=AXIS2_PLACEMENT_3D('',#672,#542,#543);
#446=AXIS2_PLACEMENT_3D('',#674,#545,#546);
#447=AXIS2_PLACEMENT_3D('',#676,#548,#549);
#448=AXIS2_PLACEMENT_3D('',#678,#550,#551);
#449=AXIS2_PLACEMENT_3D('',#680,#553,#554);
#450=AXIS2_PLACEMENT_3D('',#683,#556,#557);
#451=AXIS2_PLACEMENT_3D('',#686,#559,#560);
#452=AXIS2_PLACEMENT_3D('',#687,#561,#562);
#453=AXIS2_PLACEMENT_3D('',#689,#564,#565);
#454=AXIS2_PLACEMENT_3D('',#691,#567,#568);
#455=AXIS2_PLACEMENT_3D('',#694,#571,#572);
#456=AXIS2_PLACEMENT_3D('',#695,#573,#574);
#457=AXIS2_PLACEMENT_3D('',#696,#575,#576);
#458=AXIS2_PLACEMENT_3D('',#697,#577,#578);
#459=AXIS2_PLACEMENT_3D('',#699,#580,#581);
#460=AXIS2_PLACEMENT_3D('',#700,#582,#583);
#461=DIRECTION('axis',(0.,0.,1.));
#462=DIRECTION('refdir',(1.,0.,0.));
#463=DIRECTION('center_axis',(-1.,0.,0.));
#464=DIRECTION('ref_axis',(0.,-0.990092323708943,0.140417913859399));
#465=DIRECTION('center_axis',(1.,0.,0.));
#466=DIRECTION('ref_axis',(0.,-0.990092323708943,0.140417913859399));
#467=DIRECTION('',(1.,0.,0.));
#468=DIRECTION('center_axis',(-1.,0.,0.));
#469=DIRECTION('ref_axis',(0.,-0.990092323708943,0.140417913859399));
#470=DIRECTION('',(1.,0.,0.));
#471=DIRECTION('center_axis',(1.,0.,0.));
#472=DIRECTION('ref_axis',(0.,1.50639734604102E-12,1.));
#473=DIRECTION('center_axis',(1.,0.,0.));
#474=DIRECTION('ref_axis',(0.,1.50639734604102E-12,1.));
#475=DIRECTION('',(1.,0.,0.));
#476=DIRECTION('center_axis',(1.,0.,0.));
#477=DIRECTION('ref_axis',(0.,1.50639734604102E-12,1.));
#478=DIRECTION('center_axis',(1.,0.,0.));
#479=DIRECTION('ref_axis',(0.,1.,0.));
#480=DIRECTION('center_axis',(1.,0.,0.));
#481=DIRECTION('ref_axis',(0.,1.58206781009764E-12,1.));
#482=DIRECTION('',(0.,1.,-1.58213235794199E-12));
#483=DIRECTION('center_axis',(-1.,0.,0.));
#484=DIRECTION('ref_axis',(0.,0.70710678118566,-0.707106781187436));
#485=DIRECTION('',(0.,-9.28622258463451E-13,-1.));
#486=DIRECTION('center_axis',(-1.,0.,0.));
#487=DIRECTION('ref_axis',(0.,0.707106781187328,0.707106781185767));
#488=DIRECTION('',(0.,-1.,1.27940294018063E-12));
#489=DIRECTION('center_axis',(1.,0.,0.));
#490=DIRECTION('ref_axis',(0.,-0.707106781185403,0.707106781187692));
#491=DIRECTION('',(0.,-1.,1.94340610569278E-12));
#492=DIRECTION('',(0.,0.,1.));
#493=DIRECTION('',(0.,-1.,0.));
#494=DIRECTION('center_axis',(-1.,0.,0.));
#495=DIRECTION('ref_axis',(-9.8130778667736E-16,-0.707106781186546,0.707106781186548));
#496=DIRECTION('',(0.,0.,-1.));
#497=DIRECTION('center_axis',(1.,0.,0.));
#498=DIRECTION('ref_axis',(7.85046229341911E-16,0.707106781186526,-0.70710678118657));
#499=DIRECTION('',(0.,1.,-6.10944863240629E-14));
#500=DIRECTION('center_axis',(1.,0.,0.));
#501=DIRECTION('ref_axis',(0.,-0.707106781185403,0.707106781187692));
#502=DIRECTION('center_axis',(-1.,0.,0.));
#503=DIRECTION('ref_axis',(0.,-0.707106781185403,0.707106781187692));
#504=DIRECTION('',(-1.,0.,0.));
#505=DIRECTION('',(1.,0.,0.));
#506=DIRECTION('center_axis',(0.,1.94340610569278E-12,1.));
#507=DIRECTION('ref_axis',(0.,-1.,1.94340610569278E-12));
#508=DIRECTION('',(0.,-1.,1.94340610569278E-12));
#509=DIRECTION('center_axis',(0.,-1.94340610569278E-12,-1.));
#510=DIRECTION('ref_axis',(0.707106781186548,0.707106781186547,0.));
#511=DIRECTION('',(-1.,1.08246744900953E-15,-2.10367384961881E-27));
#512=DIRECTION('center_axis',(0.,-1.94340610569278E-12,-1.));
#513=DIRECTION('ref_axis',(-0.707106781186547,0.707106781186548,0.));
#514=DIRECTION('center_axis',(0.,-1.94340610569278E-12,-1.));
#515=DIRECTION('ref_axis',(1.,0.,0.));
#516=DIRECTION('center_axis',(1.,0.,0.));
#517=DIRECTION('ref_axis',(0.,1.,0.));
#518=DIRECTION('',(0.,1.,-6.10944863240629E-14));
#519=DIRECTION('center_axis',(-1.,0.,0.));
#520=DIRECTION('ref_axis',(7.85046229341911E-16,0.707106781186526,-0.70710678118657));
#521=DIRECTION('',(0.,0.,1.));
#522=DIRECTION('center_axis',(1.,0.,0.));
#523=DIRECTION('ref_axis',(-9.8130778667736E-16,-0.707106781186546,0.707106781186548));
#524=DIRECTION('',(0.,1.,0.));
#525=DIRECTION('',(0.,0.,-1.));
#526=DIRECTION('',(0.,1.,-1.27940294018063E-12));
#527=DIRECTION('center_axis',(1.,0.,0.));
#528=DIRECTION('ref_axis',(0.,0.707106781187328,0.707106781185767));
#529=DIRECTION('',(0.,-9.28622258463451E-13,-1.));
#530=DIRECTION('center_axis',(1.,0.,0.));
#531=DIRECTION('ref_axis',(0.,0.70710678118566,-0.707106781187436));
#532=DIRECTION('',(0.,-1.,1.58213235794199E-12));
#533=DIRECTION('center_axis',(-1.,0.,0.));
#534=DIRECTION('ref_axis',(0.,1.58206781009764E-12,1.));
#535=DIRECTION('center_axis',(1.,0.,0.));
#536=DIRECTION('ref_axis',(0.,0.707106781187328,0.707106781185767));
#537=DIRECTION('',(1.,0.,0.));
#538=DIRECTION('',(-1.,0.,0.));
#539=DIRECTION('center_axis',(0.,-1.,9.28622258463451E-13));
#540=DIRECTION('ref_axis',(0.,-9.28622258463451E-13,-1.));
#541=DIRECTION('',(-1.,0.,0.));
#542=DIRECTION('center_axis',(1.,0.,0.));
#543=DIRECTION('ref_axis',(0.,0.70710678118566,-0.707106781187436));
#544=DIRECTION('',(1.,0.,0.));
#545=DIRECTION('center_axis',(0.,1.58213235794199E-12,1.));
#546=DIRECTION('ref_axis',(0.,-1.,1.58213235794199E-12));
#547=DIRECTION('',(1.,0.,0.));
#548=DIRECTION('center_axis',(0.,0.,-1.));
#549=DIRECTION('ref_axis',(-0.707106781186547,0.707106781186548,0.));
#550=DIRECTION('center_axis',(0.,0.,1.));
#551=DIRECTION('ref_axis',(-0.707106781186547,0.707106781186548,0.));
#552=DIRECTION('',(0.,0.,-1.));
#553=DIRECTION('center_axis',(0.,0.,-1.));
#554=DIRECTION('ref_axis',(1.,0.,0.));
#555=DIRECTION('',(-1.,1.08246744900953E-15,0.));
#556=DIRECTION('center_axis',(0.,0.,1.));
#557=DIRECTION('ref_axis',(0.707106781186548,0.707106781186547,0.));
#558=DIRECTION('',(1.,-6.66133814775094E-16,0.));
#559=DIRECTION('center_axis',(0.,0.,-1.));
#560=DIRECTION('ref_axis',(1.,0.,0.));
#561=DIRECTION('center_axis',(0.,0.,1.));
#562=DIRECTION('ref_axis',(0.707106781186548,0.707106781186547,0.));
#563=DIRECTION('',(0.,0.,1.));
#564=DIRECTION('center_axis',(1.,-6.66133814775094E-16,0.));
#565=DIRECTION('ref_axis',(-9.8130778667736E-16,-0.707106781186546,0.707106781186548));
#566=DIRECTION('',(-1.,6.66133814775094E-16,0.));
#567=DIRECTION('center_axis',(1.,-6.66133814775094E-16,4.06971032367728E-29));
#568=DIRECTION('ref_axis',(7.85046229341911E-16,0.707106781186526,-0.70710678118657));
#569=DIRECTION('',(-1.,6.66133814775094E-16,-4.06971032367728E-29));
#570=DIRECTION('',(1.,-6.66133814775094E-16,4.06971032367728E-29));
#571=DIRECTION('center_axis',(-6.66133814775094E-16,-1.,0.));
#572=DIRECTION('ref_axis',(1.,-6.66133814775094E-16,0.));
#573=DIRECTION('center_axis',(0.,-1.27940294018063E-12,-1.));
#574=DIRECTION('ref_axis',(0.,1.,-1.27940294018063E-12));
#575=DIRECTION('center_axis',(1.,0.,0.));
#576=DIRECTION('ref_axis',(0.,1.58206781009764E-12,1.));
#577=DIRECTION('center_axis',(0.,0.,1.));
#578=DIRECTION('ref_axis',(1.,0.,0.));
#579=DIRECTION('',(0.,0.,1.));
#580=DIRECTION('center_axis',(0.,-6.10944863240629E-14,-1.));
#581=DIRECTION('ref_axis',(0.,1.,-6.10944863240629E-14));
#582=DIRECTION('center_axis',(-1.08246744900953E-15,-1.,0.));
#583=DIRECTION('ref_axis',(1.,-1.08246744900953E-15,0.));
#584=CARTESIAN_POINT('',(0.,0.,0.));
#585=CARTESIAN_POINT('Origin',(-3.33333333333333,-11.3722585063922,0.593170158849454));
#586=CARTESIAN_POINT('',(-3.33333333333333,-11.0572953359384,1.54227405252278));
#587=CARTESIAN_POINT('',(-3.33333333333333,-12.3623508301012,0.733588072708853));
#588=CARTESIAN_POINT('Origin',(-3.33333333333333,-11.3722585063922,0.593170158849454));
#589=CARTESIAN_POINT('',(3.33333333333333,-12.3623508301012,0.733588072708853));
#590=CARTESIAN_POINT('',(-3.33333333333333,-12.3623508301012,0.733588072708853));
#591=CARTESIAN_POINT('',(3.33333333333333,-11.0572953359384,1.54227405252278));
#592=CARTESIAN_POINT('Origin',(3.33333333333333,-11.3722585063922,0.593170158849454));
#593=CARTESIAN_POINT('',(-3.33333333333333,-11.0572953359384,1.54227405252278));
#594=CARTESIAN_POINT('Origin',(-3.33333333333333,-8.59999999999968,0.200000000042072));
#595=CARTESIAN_POINT('',(-3.33333333333333,-8.60000278095016,-3.59999999996449));
#596=CARTESIAN_POINT('Origin',(-3.33333333333333,-8.59999999999968,0.200000000042072));
#597=CARTESIAN_POINT('',(3.33333333333333,-8.60000278095016,-3.59999999996449));
#598=CARTESIAN_POINT('',(-3.33333333333333,-8.60000278095016,-3.59999999996449));
#599=CARTESIAN_POINT('Origin',(3.33333333333333,-8.59999999999968,0.200000000042072));
#600=CARTESIAN_POINT('Origin',(-3.33333333333333,-2.34745556326743E-11,
0.200000000042581));
#601=CARTESIAN_POINT('',(-3.33333333333333,-8.60000000000411,-2.59999999993129));
#602=CARTESIAN_POINT('Origin',(-3.33333333333333,-8.59999999999968,0.200000000056689));
#603=CARTESIAN_POINT('',(-3.33333333333333,-7.80000000000228,-2.59999999993327));
#604=CARTESIAN_POINT('',(-3.33333333333333,-8.60000000000411,-2.59999999993201));
#605=CARTESIAN_POINT('',(-3.33333333333333,-4.99999999999785,0.200000000064128));
#606=CARTESIAN_POINT('Origin',(-3.33333333333333,-7.79999999999785,0.200000000066728));
#607=CARTESIAN_POINT('',(-3.33333333333333,-4.99999999999649,1.6666666667072));
#608=CARTESIAN_POINT('',(-3.33333333333333,-4.99999999999525,3.00000000000168));
#609=CARTESIAN_POINT('',(-3.33333333333333,-6.33333333332812,3.00000000004177));
#610=CARTESIAN_POINT('Origin',(-3.33333333333333,-6.33333333332982,1.66666666670844));
#611=CARTESIAN_POINT('',(-3.33333333333333,-8.59999999999525,3.00000000004467));
#612=CARTESIAN_POINT('',(-3.33333333333333,8.59999999999571,3.00000000002267));
#613=CARTESIAN_POINT('',(-3.33333333333333,-7.59999999999331,4.00000000004771));
#614=CARTESIAN_POINT('Origin',(-3.33333333333333,-7.59999999999525,3.00000000004771));
#615=CARTESIAN_POINT('',(-3.33333333333333,1.99999721904985,4.00000000002906));
#616=CARTESIAN_POINT('',(-3.33333333333333,8.60000504655722,4.00000000001623));
#617=CARTESIAN_POINT('',(-3.33333333333333,1.99999721904985,3.00000000005611));
#618=CARTESIAN_POINT('',(-3.33333333333333,1.99999721904985,-1.69999999995065));
#619=CARTESIAN_POINT('',(-3.33333333333333,-3.60000278095015,3.00000000005611));
#620=CARTESIAN_POINT('',(-3.33333333333333,-0.250001390486814,3.00000000005611));
#621=CARTESIAN_POINT('',(-3.33333333333333,-4.00000278095015,2.60000000005611));
#622=CARTESIAN_POINT('Origin',(-3.33333333333334,-3.60000278095015,2.60000000005611));
#623=CARTESIAN_POINT('',(-3.33333333333333,-4.00000278095015,-2.59999999994358));
#624=CARTESIAN_POINT('',(-3.33333333333333,-4.00000278095015,-1.69999999995065));
#625=CARTESIAN_POINT('',(-3.33333333333333,-5.00000278095021,-3.59999999994358));
#626=CARTESIAN_POINT('Origin',(-3.33333333333334,-5.00000278095015,-2.59999999994358));
#627=CARTESIAN_POINT('',(-3.33333333333333,-8.60000278053411,-3.59999999994336));
#628=CARTESIAN_POINT('Origin',(-3.33333333333333,-7.59999999999525,3.00000000004771));
#629=CARTESIAN_POINT('',(3.33333333333333,-8.59999999999525,3.00000000004467));
#630=CARTESIAN_POINT('',(3.33333333333333,-7.59999999999331,4.00000000004771));
#631=CARTESIAN_POINT('Origin',(3.33333333333333,-7.59999999999525,3.00000000004771));
#632=CARTESIAN_POINT('',(-3.33333333333333,-7.59999999999331,4.00000000004771));
#633=CARTESIAN_POINT('',(-3.33333333333333,-8.59999999999525,3.00000000004467));
#634=CARTESIAN_POINT('Origin',(-3.33333333333333,8.60000504655722,4.00000000001623));
#635=CARTESIAN_POINT('',(3.33333333333333,1.99999721904984,4.00000000002906));
#636=CARTESIAN_POINT('',(3.33333333333333,8.60000504655722,4.00000000001623));
#637=CARTESIAN_POINT('',(2.33333333333333,2.99999721904984,4.00000000002711));
#638=CARTESIAN_POINT('Origin',(2.33333333333333,1.99999721904984,4.00000000001623));
#639=CARTESIAN_POINT('',(-2.33333333333333,2.99999721904985,4.00000000002711));
#640=CARTESIAN_POINT('',(-3.33333333333334,2.99999721904985,4.00000000002711));
#641=CARTESIAN_POINT('Origin',(-2.33333333333333,1.99999721904985,4.00000000001623));
#642=CARTESIAN_POINT('',(-2.,-2.78095015635798E-6,4.00000000001623));
#643=CARTESIAN_POINT('Origin',(-1.7877645945976E-15,-2.78095015660291E-6,
4.00000000001623));
#644=CARTESIAN_POINT('Origin',(3.33333333333333,-2.34745556326743E-11,0.200000000042581));
#645=CARTESIAN_POINT('',(3.33333333333333,-5.00000278095022,-3.59999999994358));
#646=CARTESIAN_POINT('',(3.33333333333333,-8.60000278053411,-3.59999999994336));
#647=CARTESIAN_POINT('',(3.33333333333333,-4.00000278095016,-2.59999999994358));
#648=CARTESIAN_POINT('Origin',(3.33333333333333,-5.00000278095016,-2.59999999994358));
#649=CARTESIAN_POINT('',(3.33333333333333,-4.00000278095016,2.60000000005611));
#650=CARTESIAN_POINT('',(3.33333333333333,-4.00000278095016,-1.69999999995065));
#651=CARTESIAN_POINT('',(3.33333333333333,-3.60000278095016,3.00000000005611));
#652=CARTESIAN_POINT('Origin',(3.33333333333333,-3.60000278095016,2.60000000005611));
#653=CARTESIAN_POINT('',(3.33333333333333,1.99999721904984,3.00000000005611));
#654=CARTESIAN_POINT('',(3.33333333333333,-0.250001390486814,3.00000000005611));
#655=CARTESIAN_POINT('',(3.33333333333333,1.99999721904984,-1.69999999995065));
#656=CARTESIAN_POINT('',(3.33333333333333,-6.33333333332812,3.00000000004177));
#657=CARTESIAN_POINT('',(3.33333333333333,8.59999999999571,3.00000000002267));
#658=CARTESIAN_POINT('',(3.33333333333333,-4.99999999999649,1.6666666667072));
#659=CARTESIAN_POINT('Origin',(3.33333333333333,-6.33333333332982,1.66666666670844));
#660=CARTESIAN_POINT('',(3.33333333333333,-4.99999999999785,0.200000000064128));
#661=CARTESIAN_POINT('',(3.33333333333333,-4.99999999999525,3.00000000000168));
#662=CARTESIAN_POINT('',(3.33333333333333,-7.80000000000228,-2.59999999993327));
#663=CARTESIAN_POINT('Origin',(3.33333333333333,-7.79999999999785,0.200000000066728));
#664=CARTESIAN_POINT('',(3.33333333333333,-8.60000000000411,-2.59999999993129));
#665=CARTESIAN_POINT('',(3.33333333333333,-8.60000000000411,-2.59999999993201));
#666=CARTESIAN_POINT('Origin',(3.33333333333333,-8.59999999999968,0.200000000056689));
#667=CARTESIAN_POINT('Origin',(-3.33333333333333,-6.33333333332982,1.66666666670844));
#668=CARTESIAN_POINT('',(-3.33333333333333,-4.99999999999649,1.6666666667072));
#669=CARTESIAN_POINT('',(-3.33333333333333,-6.33333333332812,3.00000000004177));
#670=CARTESIAN_POINT('Origin',(-3.33333333333333,-4.99999999999525,3.00000000000168));
#671=CARTESIAN_POINT('',(-3.33333333333333,-4.99999999999785,0.200000000064128));
#672=CARTESIAN_POINT('Origin',(-3.33333333333333,-7.79999999999785,0.200000000066728));
#673=CARTESIAN_POINT('',(-3.33333333333333,-7.80000000000228,-2.59999999993327));
#674=CARTESIAN_POINT('Origin',(-3.33333333333333,-5.00000000000045,-2.5999999999377));
#675=CARTESIAN_POINT('',(-3.33333333333333,-8.60000000000411,-2.59999999993129));
#676=CARTESIAN_POINT('Origin',(-2.33333333333333,1.99999721904985,-1.69999999995065));
#677=CARTESIAN_POINT('',(-2.33333333333333,2.99999721904985,3.00000000005611));
#678=CARTESIAN_POINT('Origin',(-2.33333333333333,1.99999721904985,3.00000000005611));
#679=CARTESIAN_POINT('',(-2.33333333333333,2.99999721904985,-1.69999999995065));
#680=CARTESIAN_POINT('Origin',(5.55111512312578E-16,-0.500002780950154,
3.00000000005611));
#681=CARTESIAN_POINT('',(2.33333333333333,2.99999721904984,3.00000000005611));
#682=CARTESIAN_POINT('',(3.33333333333333,2.99999721904984,3.00000000005611));
#683=CARTESIAN_POINT('Origin',(2.33333333333333,1.99999721904984,3.00000000005611));
#684=CARTESIAN_POINT('',(-1.66666666666667,-3.60000278095016,3.00000000005611));
#685=CARTESIAN_POINT('',(-2.,-2.78095015635798E-6,3.00000000005611));
#686=CARTESIAN_POINT('Origin',(-1.7877645945976E-15,-2.78095015660291E-6,
3.00000000005611));
#687=CARTESIAN_POINT('Origin',(2.33333333333333,1.99999721904984,-1.69999999995065));
#688=CARTESIAN_POINT('',(2.33333333333333,2.99999721904984,-1.69999999995065));
#689=CARTESIAN_POINT('Origin',(-1.66666666666667,-3.60000278095016,2.60000000005611));
#690=CARTESIAN_POINT('',(-1.66666666666667,-4.00000278095015,2.60000000005611));
#691=CARTESIAN_POINT('Origin',(-3.33333333333333,-5.00000278095015,-2.59999999994358));
#692=CARTESIAN_POINT('',(-3.33333333333333,-5.00000278095021,-3.59999999994358));
#693=CARTESIAN_POINT('',(-3.33333333333333,-4.00000278095015,-2.59999999994358));
#694=CARTESIAN_POINT('Origin',(-3.33333333333333,-4.00000278095015,-3.59999999994388));
#695=CARTESIAN_POINT('Origin',(-3.33333333333333,-8.59999999999525,3.00000000004467));
#696=CARTESIAN_POINT('Origin',(-3.33333333333333,-8.59999999999968,0.200000000056689));
#697=CARTESIAN_POINT('Origin',(-1.7877645945976E-15,-2.78095015660291E-6,
-3.59999999994388));
#698=CARTESIAN_POINT('',(-2.,-2.78095015684784E-6,-3.59999999994388));
#699=CARTESIAN_POINT('Origin',(-3.33333333333333,-8.60000278053411,-3.59999999994336));
#700=CARTESIAN_POINT('Origin',(-3.33333333333333,2.99999721904985,-3.59999999994388));
#701=UNCERTAINTY_MEASURE_WITH_UNIT(LENGTH_MEASURE(0.01),#705,
'DISTANCE_ACCURACY_VALUE',
'Maximum model space distance between geometric entities at asserted c
onnectivities');
#702=UNCERTAINTY_MEASURE_WITH_UNIT(LENGTH_MEASURE(0.01),#705,
'DISTANCE_ACCURACY_VALUE',
'Maximum model space distance between geometric entities at asserted c
onnectivities');
#703=(
GEOMETRIC_REPRESENTATION_CONTEXT(3)
GLOBAL_UNCERTAINTY_ASSIGNED_CONTEXT((#701))
GLOBAL_UNIT_ASSIGNED_CONTEXT((#705,#707,#708))
REPRESENTATION_CONTEXT('','3D')
);
#704=(
GEOMETRIC_REPRESENTATION_CONTEXT(3)
GLOBAL_UNCERTAINTY_ASSIGNED_CONTEXT((#702))
GLOBAL_UNIT_ASSIGNED_CONTEXT((#705,#707,#708))
REPRESENTATION_CONTEXT('','3D')
);
#705=(
LENGTH_UNIT()
NAMED_UNIT(*)
SI_UNIT(.MILLI.,.METRE.)
);
#706=(
LENGTH_UNIT()
NAMED_UNIT(*)
SI_UNIT($,.METRE.)
);
#707=(
NAMED_UNIT(*)
PLANE_ANGLE_UNIT()
SI_UNIT($,.RADIAN.)
);
#708=(
NAMED_UNIT(*)
SI_UNIT($,.STERADIAN.)
SOLID_ANGLE_UNIT()
);
#709=SHAPE_DEFINITION_REPRESENTATION(#710,#711);
#710=PRODUCT_DEFINITION_SHAPE('',$,#713);
#711=SHAPE_REPRESENTATION('',(#417),#703);
#712=PRODUCT_DEFINITION_CONTEXT('part definition',#717,'design');
#713=PRODUCT_DEFINITION('2026-09-29-17-29-41-598',
'cableClipScrewSingle',#714,#712);
#714=PRODUCT_DEFINITION_FORMATION('',$,#719);
#715=PRODUCT_RELATED_PRODUCT_CATEGORY('cableClipScrewSingle',
'cableClipScrewSingle',(#719));
#716=APPLICATION_PROTOCOL_DEFINITION('international standard',
'automotive_design',2009,#717);
#717=APPLICATION_CONTEXT(
'Core Data for Automotive Mechanical Design Process');
#718=PRODUCT_CONTEXT('part definition',#717,'mechanical');
#719=PRODUCT('2026-09-29-17-29-41-598','cableClipScrewSingle',$,(#718));
#720=PRESENTATION_STYLE_ASSIGNMENT((#721));
#721=SURFACE_STYLE_USAGE(.BOTH.,#722);
#722=SURFACE_SIDE_STYLE('',(#723));
#723=SURFACE_STYLE_FILL_AREA(#724);
#724=FILL_AREA_STYLE('Steel - Satin',(#725));
#725=FILL_AREA_STYLE_COLOUR('Steel - Satin',#726);
#726=COLOUR_RGB('Steel - Satin',0.627450980392157,0.627450980392157,0.627450980392157);
ENDSEC;
END-ISO-10303-21;
